<?xml version="1.0" encoding="UTF-8"?>
<svg xmlns="http://www.w3.org/2000/svg" width="1120" height="680" viewBox="0 0 1120 680">
<defs>
<marker id="arrow" markerWidth="10" markerHeight="10" refX="9" refY="3" orient="auto" markerUnits="strokeWidth"><path d="M0,0 L0,6 L9,3 z" fill="#334155"/></marker>
<style><![CDATA[
text{font-family:Arial,'Noto Sans CJK SC','Microsoft YaHei',sans-serif;fill:#0f172a}
.title{font-size:28px;font-weight:700}
.subtitle{font-size:14px;fill:#475569}
.node{fill:#f8fafc;stroke:#334155;stroke-width:1.4}
.decision{fill:#fff7ed;stroke:#c2410c;stroke-width:1.4}
.state{fill:#ecfeff;stroke:#0e7490;stroke-width:1.4}
.warn{fill:#fef2f2;stroke:#b91c1c;stroke-width:1.4}
.note{fill:#f7fee7;stroke:#4d7c0f;stroke-width:1.4}
.edge{stroke:#334155;stroke-width:1.5;fill:none;marker-end:url(#arrow)}
.edgelabel{font-size:12px;fill:#334155}
.nodetext{font-size:13px}
]]></style>
</defs>
<rect x="0" y="0" width="100%" height="100%" fill="#ffffff"/>
<text class="title" x="36" y="42">Codex Flowchart 1: Generic Tick State Machine</text>
<text class="subtitle" x="36" y="66">Generated by Codex as a generic autonomous experiment-loop diagram</text>
<line class="edge" x1="250.0" y1="129.0" x2="310.0" y2="129.0"/>
<line class="edge" x1="520.0" y1="129.0" x2="580.0" y2="129.0"/>
<line class="edge" x1="790.0" y1="129.0" x2="850.0" y2="129.0"/>
<text class="edgelabel" x="826.0" y="123.0">fail</text>
<line class="edge" x1="580.0" y1="150.4" x2="250.0" y2="217.6"/>
<text class="edgelabel" x="421.0" y="178.0">pass</text>
<line class="edge" x1="250.0" y1="239.0" x2="310.0" y2="239.0"/>
<line class="edge" x1="520.0" y1="239.0" x2="580.0" y2="239.0"/>
<line class="edge" x1="790.0" y1="239.0" x2="850.0" y2="239.0"/>
<text class="edgelabel" x="826.0" y="233.0">rc!=0</text>
<line class="edge" x1="685.0" y1="268.0" x2="685.0" y2="320.0"/>
<text class="edgelabel" x="691.0" y="288.0">done/stale</text>
<line class="edge" x1="850.0" y1="260.4" x2="520.0" y2="327.6"/>
<line class="edge" x1="580.0" y1="349.0" x2="520.0" y2="349.0"/>
<line class="edge" x1="613.8" y1="268.0" x2="486.2" y2="320.0"/>
<text class="edgelabel" x="556.0" y="288.0">still running</text>
<line class="edge" x1="310.0" y1="349.0" x2="250.0" y2="349.0"/>
<text class="edgelabel" x="286.0" y="343.0">yes</text>
<line class="edge" x1="145.0" y1="378.0" x2="145.0" y2="560.0"/>
<line class="edge" x1="415.0" y1="378.0" x2="415.0" y2="440.0"/>
<text class="edgelabel" x="421.0" y="403.0">no</text>
<line class="edge" x1="349.8" y1="498.0" x2="210.2" y2="560.0"/>
<text class="edgelabel" x="286.0" y="523.0">stop</text>
<line class="edge" x1="520.0" y1="469.0" x2="580.0" y2="469.0"/>
<text class="edgelabel" x="556.0" y="463.0">continue</text>
<line class="edge" x1="580.0" y1="492.3" x2="250.0" y2="565.7"/>
<text class="edgelabel" x="421.0" y="523.0">over cap</text>
<line class="edge" x1="790.0" y1="469.0" x2="850.0" y2="469.0"/>
<text class="edgelabel" x="826.0" y="463.0">under cap</text>
<line class="edge" x1="889.8" y1="498.0" x2="750.2" y2="560.0"/>
<text class="edgelabel" x="826.0" y="523.0">disabled</text>
<line class="edge" x1="955.0" y1="498.0" x2="955.0" y2="560.0"/>
<text class="edgelabel" x="961.0" y="523.0">enabled</text>
<line class="edge" x1="850.0" y1="589.0" x2="250.0" y2="589.0"/>
<text class="edgelabel" x="556.0" y="583.0">missing</text>
<line class="edge" x1="850.0" y1="589.0" x2="790.0" y2="589.0"/>
<text class="edgelabel" x="826.0" y="583.0">exists</text>
<line class="edge" x1="580.0" y1="589.0" x2="250.0" y2="589.0"/>
<text class="edgelabel" x="421.0" y="583.0">none</text>
<line class="edge" x1="580.0" y1="589.0" x2="520.0" y2="589.0"/>
<text class="edgelabel" x="556.0" y="583.0">available</text>
<line class="edge" x1="310.0" y1="589.0" x2="250.0" y2="589.0"/>
<rect class="state" x="40" y="100" width="210" height="58" rx="8"/>
<text class="nodetext" text-anchor="middle" x="145.0" y="110.0">External scheduler</text>
<text class="nodetext" text-anchor="middle" x="145.0" y="126.0">tick</text>
<text class="nodetext" text-anchor="middle" x="145.0" y="142.0">cron / tmux /</text>
<text class="nodetext" text-anchor="middle" x="145.0" y="158.0">service timer</text>
<rect class="node" x="310" y="100" width="210" height="58" rx="8"/>
<text class="nodetext" text-anchor="middle" x="415.0" y="118.0">Load runtime env</text>
<text class="nodetext" text-anchor="middle" x="415.0" y="134.0">feature flags /</text>
<text class="nodetext" text-anchor="middle" x="415.0" y="150.0">limits</text>
<polygon class="decision" points="685.0,100.0 790.0,129.0 685.0,158.0 580.0,129.0"/>
<text class="nodetext" text-anchor="middle" x="685.0" y="118.0">Host guard + enable</text>
<text class="nodetext" text-anchor="middle" x="685.0" y="134.0">flag</text>
<text class="nodetext" text-anchor="middle" x="685.0" y="150.0">+ single-tick lock</text>
<rect class="warn" x="850" y="100" width="210" height="58" rx="8"/>
<text class="nodetext" text-anchor="middle" x="955.0" y="134.0">不满足则 exit 0</text>
<rect class="node" x="40" y="210" width="210" height="58" rx="8"/>
<text class="nodetext" text-anchor="middle" x="145.0" y="228.0">Step 0 sanity</text>
<text class="nodetext" text-anchor="middle" x="145.0" y="244.0">agent CLI / spec /</text>
<text class="nodetext" text-anchor="middle" x="145.0" y="260.0">state</text>
<rect class="node" x="310" y="210" width="210" height="58" rx="8"/>
<text class="nodetext" text-anchor="middle" x="415.0" y="236.0">Step 1 Reap</text>
<text class="nodetext" text-anchor="middle" x="415.0" y="252.0">running jobs</text>
<polygon class="decision" points="685.0,210.0 790.0,239.0 685.0,268.0 580.0,239.0"/>
<text class="nodetext" text-anchor="middle" x="685.0" y="236.0">Finish signal or</text>
<text class="nodetext" text-anchor="middle" x="685.0" y="252.0">heartbeat?</text>
<rect class="warn" x="850" y="210" width="210" height="58" rx="8"/>
<text class="nodetext" text-anchor="middle" x="955.0" y="228.0">Nonzero exit -&gt;</text>
<text class="nodetext" text-anchor="middle" x="955.0" y="244.0">failed</text>
<text class="nodetext" text-anchor="middle" x="955.0" y="260.0">manual triage lane</text>
<rect class="state" x="580" y="320" width="210" height="58" rx="8"/>
<text class="nodetext" text-anchor="middle" x="685.0" y="338.0">Successful or stale</text>
<text class="nodetext" text-anchor="middle" x="685.0" y="354.0">job</text>
<text class="nodetext" text-anchor="middle" x="685.0" y="370.0">-&gt; completed</text>
<polygon class="decision" points="415.0,320.0 520.0,349.0 415.0,378.0 310.0,349.0"/>
<text class="nodetext" text-anchor="middle" x="415.0" y="346.0">Step 2: any</text>
<text class="nodetext" text-anchor="middle" x="415.0" y="362.0">completed job?</text>
<rect class="state" x="40" y="320" width="210" height="58" rx="8"/>
<text class="nodetext" text-anchor="middle" x="145.0" y="330.0">Analyze one</text>
<text class="nodetext" text-anchor="middle" x="145.0" y="346.0">completed job</text>
<text class="nodetext" text-anchor="middle" x="145.0" y="362.0">then this tick</text>
<text class="nodetext" text-anchor="middle" x="145.0" y="378.0">exits</text>
<polygon class="decision" points="415.0,440.0 520.0,469.0 415.0,498.0 310.0,469.0"/>
<text class="nodetext" text-anchor="middle" x="415.0" y="458.0">Step 3 STOP</text>
<text class="nodetext" text-anchor="middle" x="415.0" y="474.0">budget / failures /</text>
<text class="nodetext" text-anchor="middle" x="415.0" y="490.0">target met</text>
<polygon class="decision" points="685.0,440.0 790.0,469.0 685.0,498.0 580.0,469.0"/>
<text class="nodetext" text-anchor="middle" x="685.0" y="458.0">Step 4 concurrency</text>
<text class="nodetext" text-anchor="middle" x="685.0" y="474.0">cap</text>
<text class="nodetext" text-anchor="middle" x="685.0" y="490.0">running &gt;= limit?</text>
<polygon class="decision" points="955.0,440.0 1060.0,469.0 955.0,498.0 850.0,469.0"/>
<text class="nodetext" text-anchor="middle" x="955.0" y="466.0">Review-gate</text>
<text class="nodetext" text-anchor="middle" x="955.0" y="482.0">enabled?</text>
<polygon class="decision" points="955.0,560.0 1060.0,589.0 955.0,618.0 850.0,589.0"/>
<text class="nodetext" text-anchor="middle" x="955.0" y="570.0">If enabled: review</text>
<text class="nodetext" text-anchor="middle" x="955.0" y="586.0">output exists?</text>
<text class="nodetext" text-anchor="middle" x="955.0" y="602.0">Implementation may</text>
<text class="nodetext" text-anchor="middle" x="955.0" y="618.0">also check status</text>
<rect class="note" x="580" y="560" width="210" height="58" rx="8"/>
<text class="nodetext" text-anchor="middle" x="685.0" y="562.0">Resource precheck</text>
<text class="nodetext" text-anchor="middle" x="685.0" y="578.0">GPU/CPU/queue</text>
<text class="nodetext" text-anchor="middle" x="685.0" y="594.0">capacity</text>
<text class="nodetext" text-anchor="middle" x="685.0" y="610.0">before spending</text>
<text class="nodetext" text-anchor="middle" x="685.0" y="626.0">agent tokens</text>
<rect class="state" x="310" y="560" width="210" height="58" rx="8"/>
<text class="nodetext" text-anchor="middle" x="415.0" y="578.0">Step 5 Propose</text>
<text class="nodetext" text-anchor="middle" x="415.0" y="594.0">create experiment +</text>
<text class="nodetext" text-anchor="middle" x="415.0" y="610.0">launch</text>
<rect class="state" x="40" y="560" width="210" height="58" rx="8"/>
<text class="nodetext" text-anchor="middle" x="145.0" y="594.0">exit 0</text>
</svg>