<?xml version="1.0" encoding="UTF-8"?>
<svg xmlns="http://www.w3.org/2000/svg" width="1120" height="700" viewBox="0 0 1120 700">
<defs>
<marker id="arrow" markerWidth="10" markerHeight="10" refX="9" refY="3" orient="auto" markerUnits="strokeWidth"><path d="M0,0 L0,6 L9,3 z" fill="#334155"/></marker>
<style><![CDATA[
text{font-family:Arial,'Noto Sans CJK SC','Microsoft YaHei',sans-serif;fill:#0f172a}
.title{font-size:28px;font-weight:700}
.subtitle{font-size:14px;fill:#475569}
.node{fill:#f8fafc;stroke:#334155;stroke-width:1.4}
.decision{fill:#fff7ed;stroke:#c2410c;stroke-width:1.4}
.state{fill:#ecfeff;stroke:#0e7490;stroke-width:1.4}
.warn{fill:#fef2f2;stroke:#b91c1c;stroke-width:1.4}
.note{fill:#f7fee7;stroke:#4d7c0f;stroke-width:1.4}
.edge{stroke:#334155;stroke-width:1.5;fill:none;marker-end:url(#arrow)}
.edgelabel{font-size:12px;fill:#334155}
.nodetext{font-size:13px}
]]></style>
</defs>
<rect x="0" y="0" width="100%" height="100%" fill="#ffffff"/>
<text class="title" x="36" y="42">Codex Flowchart 2: Analyze, Publish, Async Review</text>
<text class="subtitle" x="36" y="66">Generated by Codex as a generic autonomous experiment-loop diagram</text>
<line class="edge" x1="250.0" y1="129.0" x2="310.0" y2="129.0"/>
<line class="edge" x1="520.0" y1="129.0" x2="580.0" y2="129.0"/>
<line class="edge" x1="790.0" y1="129.0" x2="850.0" y2="129.0"/>
<line class="edge" x1="955.0" y1="158.0" x2="955.0" y2="220.0"/>
<line class="edge" x1="850.0" y1="249.0" x2="790.0" y2="249.0"/>
<line class="edge" x1="580.0" y1="249.0" x2="520.0" y2="249.0"/>
<line class="edge" x1="310.0" y1="249.0" x2="250.0" y2="249.0"/>
<text class="edgelabel" x="286.0" y="243.0">no</text>
<line class="edge" x1="175.1" y1="278.0" x2="384.9" y2="480.0"/>
<line class="edge" x1="415.0" y1="278.0" x2="415.0" y2="350.0"/>
<text class="edgelabel" x="421.0" y="308.0">yes</text>
<line class="edge" x1="520.0" y1="379.0" x2="580.0" y2="379.0"/>
<line class="edge" x1="790.0" y1="379.0" x2="850.0" y2="379.0"/>
<line class="edge" x1="894.8" y1="408.0" x2="745.2" y2="480.0"/>
<line class="edge" x1="580.0" y1="509.0" x2="520.0" y2="509.0"/>
<text class="edgelabel" x="556.0" y="503.0">off</text>
<line class="edge" x1="790.0" y1="509.0" x2="850.0" y2="509.0"/>
<text class="edgelabel" x="826.0" y="503.0">on</text>
<line class="edge" x1="850.0" y1="509.0" x2="520.0" y2="509.0"/>
<text class="edgelabel" x="691.0" y="503.0">main path</text>
<line class="edge" x1="955.0" y1="538.0" x2="955.0" y2="590.0"/>
<text class="edgelabel" x="961.0" y="558.0">async</text>
<rect class="state" x="40" y="100" width="210" height="58" rx="8"/>
<text class="nodetext" text-anchor="middle" x="145.0" y="126.0">Pick first</text>
<text class="nodetext" text-anchor="middle" x="145.0" y="142.0">completed job</text>
<rect class="node" x="310" y="100" width="210" height="58" rx="8"/>
<text class="nodetext" text-anchor="middle" x="415.0" y="126.0">Run analysis agent</text>
<text class="nodetext" text-anchor="middle" x="415.0" y="142.0">with timeout</text>
<rect class="node" x="580" y="100" width="210" height="58" rx="8"/>
<text class="nodetext" text-anchor="middle" x="685.0" y="126.0">Read context + job</text>
<text class="nodetext" text-anchor="middle" x="685.0" y="142.0">metrics/artifacts</text>
<rect class="state" x="850" y="100" width="210" height="58" rx="8"/>
<text class="nodetext" text-anchor="middle" x="955.0" y="118.0">Write report</text>
<text class="nodetext" text-anchor="middle" x="955.0" y="134.0">skeleton</text>
<text class="nodetext" text-anchor="middle" x="955.0" y="150.0">Update state early</text>
<rect class="node" x="850" y="220" width="210" height="58" rx="8"/>
<text class="nodetext" text-anchor="middle" x="955.0" y="230.0">Generate required</text>
<text class="nodetext" text-anchor="middle" x="955.0" y="246.0">evidence</text>
<text class="nodetext" text-anchor="middle" x="955.0" y="262.0">plots / tables /</text>
<text class="nodetext" text-anchor="middle" x="955.0" y="278.0">diagnostics</text>
<rect class="node" x="580" y="220" width="210" height="58" rx="8"/>
<text class="nodetext" text-anchor="middle" x="685.0" y="238.0">Backfill report</text>
<text class="nodetext" text-anchor="middle" x="685.0" y="254.0">Append durable</text>
<text class="nodetext" text-anchor="middle" x="685.0" y="270.0">findings</text>
<polygon class="decision" points="415.0,220.0 520.0,249.0 415.0,278.0 310.0,249.0"/>
<text class="nodetext" text-anchor="middle" x="415.0" y="254.0">Report exists?</text>
<rect class="warn" x="40" y="220" width="210" height="58" rx="8"/>
<text class="nodetext" text-anchor="middle" x="145.0" y="230.0">No report -&gt; mark</text>
<text class="nodetext" text-anchor="middle" x="145.0" y="246.0">Bug</text>
<text class="nodetext" text-anchor="middle" x="145.0" y="262.0">skip publish +</text>
<text class="nodetext" text-anchor="middle" x="145.0" y="278.0">review</text>
<rect class="state" x="310" y="350" width="210" height="58" rx="8"/>
<text class="nodetext" text-anchor="middle" x="415.0" y="384.0">Publish snapshot</text>
<rect class="node" x="580" y="350" width="210" height="58" rx="8"/>
<text class="nodetext" text-anchor="middle" x="685.0" y="360.0">Commit changed</text>
<text class="nodetext" text-anchor="middle" x="685.0" y="376.0">configs,</text>
<text class="nodetext" text-anchor="middle" x="685.0" y="392.0">reports, artifacts,</text>
<text class="nodetext" text-anchor="middle" x="685.0" y="408.0">state</text>
<rect class="note" x="850" y="350" width="210" height="58" rx="8"/>
<text class="nodetext" text-anchor="middle" x="955.0" y="360.0">Restore generated</text>
<text class="nodetext" text-anchor="middle" x="955.0" y="376.0">outputs</text>
<text class="nodetext" text-anchor="middle" x="955.0" y="392.0">for downstream</text>
<text class="nodetext" text-anchor="middle" x="955.0" y="408.0">readers</text>
<polygon class="decision" points="685.0,480.0 790.0,509.0 685.0,538.0 580.0,509.0"/>
<text class="nodetext" text-anchor="middle" x="685.0" y="506.0">Review workflow</text>
<text class="nodetext" text-anchor="middle" x="685.0" y="522.0">enabled?</text>
<rect class="note" x="850" y="480" width="210" height="58" rx="8"/>
<text class="nodetext" text-anchor="middle" x="955.0" y="490.0">Spawn background</text>
<text class="nodetext" text-anchor="middle" x="955.0" y="506.0">review</text>
<text class="nodetext" text-anchor="middle" x="955.0" y="522.0">close inherited</text>
<text class="nodetext" text-anchor="middle" x="955.0" y="538.0">lock fd</text>
<rect class="state" x="310" y="480" width="210" height="58" rx="8"/>
<text class="nodetext" text-anchor="middle" x="415.0" y="506.0">Tick process exits</text>
<text class="nodetext" text-anchor="middle" x="415.0" y="522.0">immediately</text>
<rect class="state" x="850" y="590" width="210" height="58" rx="8"/>
<text class="nodetext" text-anchor="middle" x="955.0" y="608.0">Async review</text>
<text class="nodetext" text-anchor="middle" x="955.0" y="624.0">continues</text>
<text class="nodetext" text-anchor="middle" x="955.0" y="640.0">independently</text>
</svg>